<svg width="1200" height="630" viewBox="0 0 1200 630" xmlns="http://www.w3.org/2000/svg"><mask id="satori_om-id"><rect x="0" y="0" width="1200" height="630" fill="#fff"/></mask><mask id="satori_om-id-0"><rect x="0" y="0" width="1200" height="630" fill="#fff"/></mask><rect x="0" y="0" width="1200" height="630" fill="#f2f2f2"/><mask id="satori_om-id-0-0"><rect x="0" y="0" width="1200" height="441" fill="#fff"/></mask><mask id="satori_om-id-0-0-0"><rect x="40" y="136" width="1120" height="36" fill="#fff"/></mask><g  ><path fill="#8e8e8e" d="M45.3 165L42.6 165L42.6 143.2L46.6 143.2L52.0 156.9Q52.2 157.4 52.4 158.2Q52.6 158.9 52.9 159.7Q53.2 160.6 53.4 161.4L53.4 161.4Q53.5 161.7 53.6 161.9L53.6 161.9Q53.6 161.7 53.7 161.5L53.7 161.5Q54.0 160.6 54.2 159.8Q54.5 158.9 54.8 158.2Q55 157.4 55.2 156.9L55.2 156.9L60.5 143.2L64.5 143.2L64.5 165L61.7 165L61.7 152.5Q61.7 151.9 61.7 151.0Q61.7 150.1 61.8 149.2Q61.8 148.2 61.8 147.2L61.8 147.2Q61.8 146.7 61.8 146.1L61.8 146.1Q61.6 146.8 61.4 147.4L61.4 147.4Q61.1 148.4 60.7 149.4Q60.4 150.4 60.1 151.2Q59.8 152.0 59.6 152.5L59.6 152.5L54.8 165L52.3 165L47.4 152.5Q47.2 152.0 46.9 151.2Q46.6 150.5 46.3 149.5Q46.0 148.5 45.6 147.5L45.6 147.5Q45.4 146.8 45.2 146.2L45.2 146.2Q45.2 146.6 45.2 147.1L45.2 147.1Q45.2 148.1 45.2 149.0Q45.3 150.0 45.3 150.9Q45.3 151.8 45.3 152.5L45.3 152.5L45.3 165ZM76.1 165.4L76.1 165.4Q73.9 165.4 72.2 164.3Q70.5 163.2 69.6 161.3Q68.6 159.4 68.6 156.9L68.6 156.9Q68.6 154.4 69.6 152.4Q70.5 150.5 72.2 149.5Q73.9 148.4 76.1 148.4L76.1 148.4Q78.3 148.4 80.0 149.5Q81.7 150.5 82.6 152.4Q83.6 154.4 83.6 156.9L83.6 156.9Q83.6 159.4 82.6 161.3Q81.7 163.2 80.0 164.3Q78.3 165.4 76.1 165.4ZM76.1 163.0L76.1 163.0Q77.7 163.0 78.8 162.1Q79.9 161.3 80.4 159.9Q80.9 158.5 80.9 156.9L80.9 156.9Q80.9 155.3 80.4 153.9Q79.9 152.5 78.8 151.6Q77.7 150.8 76.1 150.8L76.1 150.8Q74.4 150.8 73.4 151.6Q72.3 152.5 71.8 153.9Q71.3 155.3 71.3 156.9L71.3 156.9Q71.3 158.5 71.8 159.9Q72.3 161.3 73.4 162.1Q74.4 163.0 76.1 163.0ZM90.0 155.2L90.0 155.2L90.0 165L87.4 165L87.4 148.6L89.9 148.6L90.0 151.7Q90.6 150.1 91.7 149.4L91.7 149.4Q93.1 148.4 95.0 148.4L95.0 148.4Q96.6 148.4 97.9 149.1Q99.1 149.8 99.8 151.1Q100.5 152.5 100.5 154.6L100.5 154.6L100.5 165L97.9 165L97.9 154.8Q97.9 152.9 96.9 151.9Q95.9 150.8 94.2 150.8L94.2 150.8Q93.0 150.8 92.1 151.3Q91.1 151.8 90.6 152.8Q90.0 153.8 90.0 155.2ZM111.3 165.4L111.3 165.4Q109.2 165.4 107.7 164.3Q106.1 163.3 105.2 161.4Q104.3 159.5 104.3 156.9L104.3 156.9Q104.3 154.3 105.2 152.4Q106.1 150.5 107.7 149.4Q109.2 148.4 111.3 148.4L111.3 148.4Q112.9 148.4 113.8 148.9Q114.8 149.5 115.3 150.1Q115.8 150.8 116.0 151.2L116.0 151.2L116.2 151.2L116.2 143.2L118.9 143.2L118.9 165L116.3 165L116.3 162.5L116.0 162.5Q115.8 162.9 115.2 163.6Q114.7 164.3 113.8 164.8Q112.8 165.4 111.3 165.4ZM111.7 163.0L111.7 163.0Q113.2 163.0 114.2 162.2Q115.2 161.4 115.7 160.0Q116.3 158.6 116.3 156.8L116.3 156.8Q116.3 155.0 115.7 153.7Q115.2 152.3 114.2 151.5Q113.2 150.8 111.7 150.8L111.7 150.8Q110.1 150.8 109.1 151.6Q108.0 152.4 107.5 153.8Q107.0 155.1 107.0 156.8L107.0 156.8Q107.0 158.5 107.5 159.9Q108.1 161.3 109.1 162.2Q110.1 163.0 111.7 163.0ZM128.1 165.4L128.1 165.4Q126.5 165.4 125.3 164.8Q124.0 164.2 123.2 163.1Q122.5 162.0 122.5 160.3L122.5 160.3Q122.5 158.9 123.1 158.1Q123.6 157.2 124.5 156.7Q125.5 156.2 126.6 155.9Q127.7 155.7 128.9 155.5L128.9 155.5Q130.3 155.3 131.3 155.2Q132.2 155.1 132.6 154.9Q133.1 154.6 133.1 154.0L133.1 154.0L133.1 153.9Q133.1 152.9 132.7 152.2Q132.3 151.5 131.6 151.1Q130.8 150.7 129.6 150.7L129.6 150.7Q128.5 150.7 127.6 151.1Q126.8 151.5 126.3 152.0Q125.8 152.6 125.5 153.1L125.5 153.1L123.0 152.3Q123.6 150.8 124.7 150.0Q125.7 149.1 127.0 148.8Q128.3 148.4 129.6 148.4L129.6 148.4Q130.4 148.4 131.4 148.6Q132.5 148.8 133.5 149.4Q134.4 150.0 135.1 151.1Q135.7 152.3 135.7 154.2L135.7 154.2L135.7 165L133.1 165L133.1 162.8L132.9 162.8Q132.7 163.3 132.1 164.0Q131.4 164.6 130.5 165.0Q129.5 165.4 128.1 165.4ZM128.5 163.1L128.5 163.1Q130 163.1 131.0 162.5Q132.0 161.9 132.5 161.0Q133.1 160.1 133.1 159.1L133.1 159.1L133.1 156.8Q132.9 157.0 132.4 157.2Q131.8 157.3 131.1 157.4Q130.4 157.5 129.8 157.6Q129.1 157.7 128.8 157.7L128.8 157.7Q127.8 157.9 127.0 158.2Q126.1 158.4 125.6 159.0Q125.2 159.5 125.2 160.5L125.2 160.5Q125.2 161.3 125.6 161.9Q126.0 162.5 126.8 162.8Q127.6 163.1 128.5 163.1ZM139.6 170.9L139.6 170.9L140.3 168.6L140.6 168.7Q141.4 168.9 142.1 168.8Q142.7 168.7 143.2 168.2Q143.8 167.6 144.2 166.5L144.2 166.5L144.6 165.1L138.4 148.6L141.3 148.6L144.8 158.3Q145.3 159.9 145.7 161.4L145.7 161.4Q145.8 162.0 146.0 162.6L146.0 162.6Q146.2 162.0 146.3 161.3L146.3 161.3Q146.7 159.8 147.3 158.3L147.3 158.3L150.8 148.6L153.7 148.6L146.5 167.4Q146.0 168.8 145.3 169.6Q144.6 170.4 143.7 170.8Q142.7 171.2 141.6 171.2L141.6 171.2Q140.9 171.2 140.4 171.1Q139.8 171.0 139.6 170.9ZM157.0 170.3L155.0 170.3L156.3 162.0L159.3 162.0L157.0 170.3Z M176.4 143.2L179.8 143.2L179.8 165L177.0 165L177.0 145.8L176.9 145.8L171.6 149.7L171.6 146.7L176.4 143.2ZM194.4 160.6L184.2 160.6L184.2 158.3L193.7 143.2L197.1 143.2L197.1 158.1L200.1 158.1L200.1 160.6L197.1 160.6L197.1 165L194.4 165L194.4 160.6ZM187.1 158.1L194.5 158.1L194.5 146.7L194.3 146.7L187.1 157.9L187.1 158.1Z M218.2 165.3L218.2 165.3Q215.3 165.3 213.5 163.6Q211.7 161.9 211.7 158.8L211.7 158.8L211.7 157.6L214.5 157.6L214.5 158.8Q214.5 160.8 215.5 161.8Q216.5 162.8 218.2 162.8L218.2 162.8Q219.9 162.8 220.9 161.8Q221.9 160.8 221.9 158.8L221.9 158.8L221.9 143.2L224.7 143.2L224.7 158.8Q224.7 161.9 222.9 163.6Q221.1 165.3 218.2 165.3ZM235.2 165.2L235.2 165.2Q233.6 165.2 232.3 164.5Q231.1 163.8 230.4 162.5Q229.7 161.1 229.7 159.0L229.7 159.0L229.7 148.6L232.3 148.6L232.3 158.8Q232.3 160.7 233.3 161.8Q234.3 162.8 236.0 162.8L236.0 162.8Q237.2 162.8 238.1 162.3Q239.0 161.8 239.6 160.8Q240.1 159.8 240.1 158.4L240.1 158.4L240.1 148.6L242.8 148.6L242.8 165L240.2 165L240.2 161.9Q239.5 163.5 238.4 164.3L238.4 164.3Q237.0 165.2 235.2 165.2ZM247.4 143.2L250.0 143.2L250.0 165L247.4 165L247.4 143.2ZM254.6 170.9L254.6 170.9L255.2 168.6L255.5 168.7Q256.3 168.9 257.0 168.8Q257.6 168.7 258.2 168.2Q258.7 167.6 259.1 166.5L259.1 166.5L259.6 165.1L253.3 148.6L256.2 148.6L259.7 158.3Q260.2 159.9 260.6 161.4L260.6 161.4Q260.8 162.0 260.9 162.6L260.9 162.6Q261.1 162.0 261.3 161.3L261.3 161.3Q261.6 159.8 262.2 158.3L262.2 158.3L265.7 148.6L268.6 148.6L261.4 167.4Q260.9 168.8 260.2 169.6Q259.5 170.4 258.6 170.8Q257.6 171.2 256.5 171.2L256.5 171.2Q255.8 171.2 255.3 171.1Q254.8 171.0 254.6 170.9Z M294.0 165L280.1 165L280.1 163.0L287.3 155.1Q288.5 153.8 289.3 152.8Q290.1 151.8 290.5 150.9Q291.0 150.0 291.0 149.0L291.0 149.0Q291.0 147.9 290.4 147.0Q289.9 146.2 289.0 145.7Q288.0 145.3 286.9 145.3L286.9 145.3Q285.6 145.3 284.7 145.8Q283.8 146.3 283.3 147.2Q282.8 148.1 282.8 149.4L282.8 149.4L280.1 149.4Q280.1 147.4 281.0 146.0Q281.9 144.5 283.4 143.7Q285.0 142.9 286.9 142.9L286.9 142.9Q288.9 142.9 290.4 143.7Q291.9 144.5 292.7 145.9Q293.6 147.3 293.6 149.0L293.6 149.0Q293.6 150.2 293.2 151.3Q292.7 152.4 291.7 153.8Q290.6 155.2 288.7 157.3L288.7 157.3L283.9 162.4L283.9 162.6L294.0 162.6L294.0 165ZM305.6 165.3L305.6 165.3Q303.1 165.3 301.4 164.0Q299.7 162.7 298.8 160.2Q297.9 157.7 297.9 154.1L297.9 154.1Q297.9 150.6 298.8 148.1Q299.7 145.5 301.4 144.2Q303.1 142.9 305.6 142.9L305.6 142.9Q308.0 142.9 309.7 144.2Q311.4 145.5 312.3 148.1Q313.2 150.6 313.2 154.1L313.2 154.1Q313.2 157.6 312.3 160.2Q311.4 162.7 309.7 164.0Q308.0 165.3 305.6 165.3ZM305.6 162.9L305.6 162.9Q307.2 162.9 308.3 161.8Q309.4 160.8 310.0 158.8Q310.6 156.9 310.6 154.1L310.6 154.1Q310.6 151.3 310.0 149.3Q309.4 147.4 308.3 146.3Q307.2 145.3 305.6 145.3L305.6 145.3Q304.0 145.3 302.9 146.3Q301.7 147.4 301.2 149.4Q300.6 151.3 300.6 154.1L300.6 154.1Q300.6 156.9 301.2 158.8Q301.7 160.8 302.9 161.8Q304.0 162.9 305.6 162.9ZM331.2 165L317.3 165L317.3 163.0L324.5 155.1Q325.7 153.8 326.6 152.8Q327.4 151.8 327.8 150.9Q328.2 150.0 328.2 149.0L328.2 149.0Q328.2 147.9 327.6 147.0Q327.1 146.2 326.2 145.7Q325.2 145.3 324.1 145.3L324.1 145.3Q322.8 145.3 321.9 145.8Q321.0 146.3 320.5 147.2Q320.0 148.1 320.0 149.4L320.0 149.4L317.3 149.4Q317.3 147.4 318.2 146.0Q319.1 144.5 320.7 143.7Q322.2 142.9 324.2 142.9L324.2 142.9Q326.1 142.9 327.6 143.7Q329.1 144.5 330.0 145.9Q330.8 147.3 330.8 149.0L330.8 149.0Q330.8 150.2 330.4 151.3Q330.0 152.4 328.9 153.8Q327.8 155.2 325.9 157.3L325.9 157.3L321.1 162.4L321.1 162.6L331.2 162.6L331.2 165ZM342.1 165.3L342.1 165.3Q340.1 165.3 338.6 164.5Q337.1 163.8 336.2 162.5Q335.3 161.2 335.2 159.5L335.2 159.5L337.9 159.5Q338.0 160.5 338.5 161.2Q339.1 162.0 340.0 162.4Q341.0 162.8 342.1 162.8L342.1 162.8Q343.4 162.8 344.4 162.2Q345.4 161.6 346.0 160.5Q346.6 159.4 346.6 158.1L346.6 158.1Q346.6 156.7 346.0 155.6Q345.4 154.4 344.3 153.8Q343.3 153.2 341.9 153.2L341.9 153.2Q340.9 153.2 339.8 153.5Q338.8 153.8 338.1 154.3L338.1 154.3L335.5 154.0L336.8 143.2L348.3 143.2L348.3 145.6L339.2 145.6L338.4 152.0L338.5 152.0Q339.2 151.4 340.2 151.1Q341.3 150.7 342.4 150.7L342.4 150.7Q343.9 150.7 345.1 151.3Q346.4 151.8 347.4 152.8Q348.3 153.8 348.8 155.1Q349.3 156.4 349.3 158.0L349.3 158.0Q349.3 160.1 348.4 161.8Q347.4 163.4 345.8 164.3Q344.2 165.3 342.1 165.3Z "/></g><mask id="satori_om-id-0-0-1"><rect x="40" y="217" width="1120" height="83" fill="#fff"/></mask><g  ><path fill="#224d67" d="M62.4 280L44.0 280L44.0 236.3L61.3 236.3Q66.1 236.3 69.3 237.8Q72.5 239.2 74.1 241.8Q75.7 244.3 75.7 247.6L75.7 247.6Q75.7 250.1 74.7 252.1Q73.6 254.0 71.9 255.2Q70.1 256.4 67.8 256.9L67.8 256.9L67.8 257.4Q70.3 257.5 72.5 258.8Q74.7 260.1 76.0 262.4Q77.4 264.7 77.4 268.0L77.4 268.0Q77.4 271.4 75.7 274.1Q74.0 276.9 70.7 278.4Q67.3 280 62.4 280L62.4 280ZM52.9 260.8L52.9 272.6L60.6 272.6Q64.6 272.6 66.4 271.1Q68.2 269.6 68.2 267.1L68.2 267.1Q68.2 265.3 67.3 263.8Q66.4 262.4 64.8 261.6Q63.1 260.8 60.9 260.8L60.9 260.8L52.9 260.8ZM52.9 243.6L52.9 254.7L60.0 254.7Q61.9 254.7 63.4 254.0Q64.9 253.3 65.8 252.0Q66.6 250.8 66.6 249.0L66.6 249.0Q66.6 246.6 64.9 245.1Q63.3 243.6 60.1 243.6L60.1 243.6L52.9 243.6ZM92.6 280.6L92.6 280.6Q89.5 280.6 87.0 279.5Q84.5 278.4 83.1 276.3Q81.7 274.1 81.7 270.8L81.7 270.8Q81.7 268.1 82.7 266.3Q83.7 264.4 85.5 263.3Q87.2 262.2 89.4 261.6Q91.6 261.0 94.1 260.8L94.1 260.8Q96.9 260.5 98.6 260.2Q100.4 260.0 101.2 259.4Q102.0 258.9 102.0 257.9L102.0 257.9L102.0 257.7Q102.0 256.3 101.4 255.3Q100.8 254.4 99.7 253.9Q98.5 253.3 96.9 253.3L96.9 253.3Q95.2 253.3 93.9 253.9Q92.6 254.4 91.9 255.2Q91.1 256.1 90.7 257.1L90.7 257.1L82.6 255.8Q83.5 252.9 85.4 250.9Q87.4 248.9 90.3 247.9Q93.2 246.8 96.9 246.8L96.9 246.8Q99.5 246.8 102.0 247.5Q104.5 248.1 106.5 249.4Q108.5 250.7 109.6 252.9Q110.8 255.0 110.8 257.9L110.8 257.9L110.8 280L102.5 280L102.5 275.5L102.2 275.5Q101.4 277.0 100.1 278.1Q98.7 279.3 96.9 280.0Q95.0 280.6 92.6 280.6ZM95.1 274.5L95.1 274.5Q97.2 274.5 98.7 273.6Q100.3 272.8 101.2 271.4Q102.1 270.0 102.1 268.3L102.1 268.3L102.1 264.7Q101.7 265.0 100.9 265.3Q100.1 265.5 99.1 265.7Q98.2 265.8 97.2 266.0Q96.3 266.1 95.5 266.2L95.5 266.2Q93.9 266.5 92.7 267.0Q91.5 267.5 90.8 268.4Q90.1 269.2 90.1 270.6L90.1 270.6Q90.1 271.9 90.8 272.7Q91.4 273.6 92.5 274.0Q93.6 274.5 95.1 274.5ZM131.3 280.6L131.3 280.6Q127.3 280.6 124.3 279.5Q121.2 278.4 119.3 276.2Q117.4 274.1 116.8 271.0L116.8 271.0L125.0 269.6Q125.6 271.9 127.2 273.1Q128.9 274.2 131.6 274.2L131.6 274.2Q134.1 274.2 135.5 273.2Q137.0 272.3 137.0 270.8L137.0 270.8Q137.0 269.5 135.9 268.7Q134.9 267.9 132.8 267.5L132.8 267.5L127.1 266.3Q122.4 265.3 120.0 263.0Q117.7 260.7 117.7 257.0L117.7 257.0Q117.7 253.8 119.4 251.6Q121.1 249.3 124.2 248.1Q127.3 246.8 131.4 246.8L131.4 246.8Q135.3 246.8 138.1 247.9Q141.0 249.0 142.7 250.9Q144.5 252.9 145.1 255.6L145.1 255.6L137.3 256.9Q136.8 255.3 135.4 254.2Q134.0 253.1 131.6 253.1L131.6 253.1Q129.4 253.1 127.9 254.0Q126.5 255.0 126.5 256.5L126.5 256.5Q126.5 257.7 127.4 258.6Q128.4 259.4 130.7 259.9L130.7 259.9L136.6 261.0Q141.3 262.0 143.6 264.2Q145.9 266.4 145.9 269.9L145.9 269.9Q145.9 273.1 144.1 275.5Q142.2 277.9 138.9 279.3Q135.6 280.6 131.3 280.6ZM166.7 280.6L166.7 280.6Q161.7 280.6 158.0 278.6Q154.4 276.5 152.5 272.8Q150.5 269.0 150.5 263.8L150.5 263.8Q150.5 258.7 152.4 254.9Q154.4 251.1 157.9 249.0Q161.5 246.8 166.2 246.8L166.2 246.8Q169.5 246.8 172.2 247.9Q175.0 248.9 177.1 251.0Q179.2 253.0 180.4 256.1Q181.6 259.2 181.6 263.4L181.6 263.4L181.6 265.9L159.2 265.9Q159.3 268.4 160.2 270.2L160.2 270.2Q161.1 272.1 162.8 273.1Q164.5 274.0 166.8 274.0L166.8 274.0Q168.4 274.0 169.6 273.6Q170.9 273.1 171.8 272.3Q172.7 271.4 173.2 270.2L173.2 270.2L181.1 271.7Q180.3 274.3 178.4 276.4Q176.4 278.4 173.5 279.5Q170.5 280.6 166.7 280.6ZM159.3 260.4L159.3 260.4L173.2 260.4Q173.0 258.8 172.5 257.4L172.5 257.4Q171.7 255.5 170.1 254.5Q168.6 253.5 166.3 253.5L166.3 253.5Q164.0 253.5 162.4 254.5Q160.8 255.6 160.0 257.4L160.0 257.4Q159.4 258.7 159.3 260.4ZM187.6 236.3L196.4 236.3L196.4 280L187.6 280L187.6 236.3ZM212.7 280L203.9 280L203.9 247.2L212.7 247.2L212.7 280ZM208.3 243.0L208.3 243.0Q206.3 243.0 204.9 241.7Q203.5 240.3 203.5 238.5L203.5 238.5Q203.5 236.6 204.9 235.3Q206.3 233.9 208.3 233.9L208.3 233.9Q210.3 233.9 211.7 235.2Q213.1 236.6 213.1 238.5L213.1 238.5Q213.1 240.3 211.7 241.7Q210.3 243.0 208.3 243.0ZM228.9 261.0L228.9 261.0L228.9 280L220.1 280L220.1 247.2L228.4 247.2L228.6 254.0Q229.8 250.9 232.0 249.1L232.0 249.1Q234.6 246.8 238.8 246.8L238.8 246.8Q242.1 246.8 244.7 248.3Q247.2 249.8 248.6 252.6Q250 255.3 250 259.2L250 259.2L250 280L241.2 280L241.2 260.7Q241.2 257.6 239.6 255.9Q238.1 254.2 235.3 254.2L235.3 254.2Q233.4 254.2 232.0 255.0Q230.5 255.8 229.7 257.3Q228.9 258.8 228.9 261.0ZM272.3 280.6L272.3 280.6Q267.3 280.6 263.7 278.6Q260.0 276.5 258.1 272.8Q256.1 269.0 256.1 263.8L256.1 263.8Q256.1 258.7 258.1 254.9Q260.0 251.1 263.5 249.0Q267.1 246.8 271.9 246.8L271.9 246.8Q275.1 246.8 277.9 247.9Q280.6 248.9 282.8 251.0Q284.9 253.0 286.0 256.1Q287.2 259.2 287.2 263.4L287.2 263.4L287.2 265.9L264.8 265.9Q264.9 268.4 265.8 270.2L265.8 270.2Q266.7 272.1 268.4 273.1Q270.2 274.0 272.4 274.0L272.4 274.0Q274.0 274.0 275.3 273.6Q276.5 273.1 277.4 272.3Q278.3 271.4 278.8 270.2L278.8 270.2L286.7 271.7Q285.9 274.3 284.0 276.4Q282.0 278.4 279.1 279.5Q276.1 280.6 272.3 280.6ZM264.9 260.4L264.9 260.4L278.8 260.4Q278.6 258.8 278.1 257.4L278.1 257.4Q277.3 255.5 275.7 254.5Q274.2 253.5 271.9 253.5L271.9 253.5Q269.7 253.5 268.1 254.5Q266.5 255.6 265.6 257.4L265.6 257.4Q265.0 258.7 264.9 260.4Z M327.0 280.6L327.0 280.6Q320.9 280.6 316.3 277.9Q311.6 275.2 309.0 270.1Q306.5 265.1 306.5 258.2L306.5 258.2Q306.5 251.1 309.2 246.1Q311.8 241.1 316.4 238.4Q321.0 235.8 326.8 235.8L326.8 235.8Q330.5 235.8 333.7 236.8Q336.8 237.9 339.3 239.9Q341.8 241.8 343.4 244.5Q344.9 247.2 345.4 250.4L345.4 250.4L336.3 250.4Q335.8 248.9 335.0 247.6Q334.2 246.4 333.0 245.5Q331.8 244.6 330.3 244.2Q328.8 243.7 326.9 243.7L326.9 243.7Q323.6 243.7 321.0 245.4Q318.4 247.1 317.0 250.3Q315.5 253.5 315.5 258.1Q315.5 262.8 317.0 266.0Q318.4 269.2 321.0 270.9Q323.5 272.6 327.1 272.6L327.1 272.6Q330.2 272.6 332.5 271.5Q334.7 270.4 336.0 268.2L336.0 268.2Q337.1 266.2 337.2 263.5L337.2 263.5L327.7 263.5L327.7 256.7L345.8 256.7L345.8 262.2Q345.8 267.9 343.4 272.0Q341.0 276.2 336.7 278.4Q332.5 280.6 327.0 280.6ZM361.3 280L352.5 280L352.5 247.2L361.0 247.2L361.0 253.0L361.3 253.0Q362.2 249.9 364.4 248.4Q366.5 246.8 369.2 246.8L369.2 246.8Q369.9 246.8 370.7 246.9Q371.5 247.0 372.1 247.1L372.1 247.1L372.1 255.0Q371.5 254.7 370.4 254.6Q369.3 254.5 368.3 254.5L368.3 254.5Q366.3 254.5 364.7 255.4Q363.1 256.2 362.2 257.8Q361.3 259.3 361.3 261.4L361.3 261.4L361.3 280ZM386.0 280L377.2 280L377.2 247.2L386.0 247.2L386.0 280ZM381.6 243.0L381.6 243.0Q379.6 243.0 378.2 241.7Q376.8 240.3 376.8 238.5L376.8 238.5Q376.8 236.6 378.2 235.3Q379.6 233.9 381.6 233.9L381.6 233.9Q383.6 233.9 385.0 235.2Q386.4 236.6 386.4 238.5L386.4 238.5Q386.4 240.3 385.0 241.7Q383.6 243.0 381.6 243.0ZM405.4 280.6L405.4 280.6Q401.6 280.6 398.6 278.6Q395.6 276.7 393.8 272.9Q392.1 269.1 392.1 263.7L392.1 263.7Q392.1 258.1 393.9 254.3Q395.7 250.6 398.7 248.7Q401.7 246.8 405.4 246.8L405.4 246.8Q408.1 246.8 410.0 247.8Q411.8 248.7 413.0 250.1Q414.1 251.5 414.7 252.8L414.7 252.8L415.0 252.8L415.0 236.3L423.8 236.3L423.8 280L415.1 280L415.1 274.8L414.7 274.8Q414.1 276.1 412.9 277.4Q411.8 278.7 409.9 279.6Q408.1 280.6 405.4 280.6ZM408.1 273.5L408.1 273.5Q410.3 273.5 411.9 272.3Q413.5 271.0 414.3 268.8Q415.1 266.6 415.1 263.7L415.1 263.7Q415.1 260.7 414.3 258.5Q413.5 256.3 412.0 255.1Q410.4 253.9 408.1 253.9L408.1 253.9Q405.8 253.9 404.2 255.1Q402.7 256.4 401.9 258.6Q401.1 260.8 401.1 263.7L401.1 263.7Q401.1 266.5 401.9 268.8Q402.7 271.0 404.3 272.2Q405.8 273.5 408.1 273.5Z M454.6 280L445.7 280L445.7 236.3L462.7 236.3Q467.7 236.3 471.2 238.1Q474.6 239.9 476.5 243.1Q478.3 246.3 478.3 250.6Q478.3 254.9 476.5 258.0Q474.6 261.1 471.1 262.7L471.1 262.7Q470.8 262.9 470.6 263.0L470.6 263.0L479.9 280L470.0 280L461.6 264.4L454.6 264.4L454.6 280ZM454.6 243.7L454.6 257.2L461.1 257.2Q463.8 257.2 465.6 256.4Q467.3 255.7 468.2 254.2Q469.1 252.7 469.1 250.6L469.1 250.6Q469.1 248.3 468.2 246.8Q467.3 245.3 465.6 244.5Q463.8 243.7 461.0 243.7L461.0 243.7L454.6 243.7ZM498.9 280.6L498.9 280.6Q493.9 280.6 490.3 278.6Q486.7 276.5 484.7 272.8Q482.8 269.0 482.8 263.8L482.8 263.8Q482.8 258.7 484.7 254.9Q486.6 251.1 490.2 249.0Q493.7 246.8 498.5 246.8L498.5 246.8Q501.7 246.8 504.5 247.9Q507.3 248.9 509.4 251.0Q511.5 253.0 512.7 256.1Q513.9 259.2 513.9 263.4L513.9 263.4L513.9 265.9L491.5 265.9Q491.6 268.4 492.4 270.2L492.4 270.2Q493.4 272.1 495.1 273.1Q496.8 274.0 499.1 274.0L499.1 274.0Q500.6 274.0 501.9 273.6Q503.2 273.1 504.0 272.3Q504.9 271.4 505.4 270.2L505.4 270.2L513.4 271.7Q512.6 274.3 510.6 276.4Q508.7 278.4 505.7 279.5Q502.8 280.6 498.9 280.6ZM491.5 260.4L491.5 260.4L505.4 260.4Q505.2 258.8 504.7 257.4L504.7 257.4Q503.9 255.5 502.4 254.5Q500.8 253.5 498.6 253.5L498.6 253.5Q496.3 253.5 494.7 254.5Q493.1 255.6 492.3 257.4L492.3 257.4Q491.7 258.7 491.5 260.4ZM531.3 247.2L538.1 247.2L538.1 254.0L531.3 254.0L531.3 280L522.5 280L522.5 254.0L516.7 254.0L516.7 247.2L522.5 247.2L522.5 244.7Q522.5 241.2 523.9 238.9Q525.3 236.6 527.7 235.5Q530.1 234.3 533.1 234.3L533.1 234.3Q535.2 234.3 536.9 234.6Q538.6 235.0 539.4 235.2L539.4 235.2L537.8 241.8Q537.3 241.7 536.5 241.5Q535.8 241.4 534.9 241.4L534.9 241.4Q532.9 241.4 532.1 242.3Q531.3 243.3 531.3 245.0L531.3 245.0L531.3 247.2ZM551.7 280.6L551.7 280.6Q548.6 280.6 546.1 279.5Q543.7 278.4 542.3 276.3Q540.8 274.1 540.8 270.8L540.8 270.8Q540.8 268.1 541.8 266.3Q542.9 264.4 544.6 263.3Q546.3 262.2 548.5 261.6Q550.8 261.0 553.2 260.8L553.2 260.8Q556.0 260.5 557.8 260.2Q559.5 260.0 560.3 259.4Q561.1 258.9 561.1 257.9L561.1 257.9L561.1 257.7Q561.1 256.3 560.5 255.3Q560.0 254.4 558.8 253.9Q557.6 253.3 556.0 253.3L556.0 253.3Q554.3 253.3 553.0 253.9Q551.8 254.4 551.0 255.2Q550.2 256.1 549.8 257.1L549.8 257.1L541.8 255.8Q542.6 252.9 544.6 250.9Q546.5 248.9 549.5 247.9Q552.4 246.8 556.0 246.8L556.0 246.8Q558.7 246.8 561.2 247.5Q563.7 248.1 565.6 249.4Q567.6 250.7 568.8 252.9Q569.9 255.0 569.9 257.9L569.9 257.9L569.9 280L561.6 280L561.6 275.5L561.3 275.5Q560.5 277.0 559.2 278.1Q557.9 279.3 556.0 280.0Q554.2 280.6 551.7 280.6ZM554.2 274.5L554.2 274.5Q556.3 274.5 557.9 273.6Q559.4 272.8 560.3 271.4Q561.2 270.0 561.2 268.3L561.2 268.3L561.2 264.7Q560.8 265.0 560.0 265.3Q559.2 265.5 558.3 265.7Q557.3 265.8 556.4 266.0Q555.4 266.1 554.7 266.2L554.7 266.2Q553.1 266.5 551.8 267.0Q550.6 267.5 549.9 268.4Q549.3 269.2 549.3 270.6L549.3 270.6Q549.3 271.9 549.9 272.7Q550.6 273.6 551.7 274.0Q552.8 274.5 554.2 274.5ZM592.1 280.6L592.1 280.6Q587.1 280.6 583.5 278.5Q579.9 276.4 578.0 272.6Q576.0 268.8 576.0 263.8L576.0 263.8Q576.0 258.7 578.0 254.9Q579.9 251.1 583.5 249.0Q587.1 246.8 592.1 246.8L592.1 246.8Q595.0 246.8 597.4 247.6Q599.9 248.4 601.8 249.8Q603.7 251.2 604.9 253.2Q606.2 255.2 606.6 257.7L606.6 257.7L598.5 259.3Q598.2 258.0 597.6 257.0Q597.1 255.9 596.3 255.2Q595.5 254.5 594.5 254.1Q593.4 253.8 592.2 253.8L592.2 253.8Q589.8 253.8 588.2 255.0Q586.6 256.3 585.8 258.5Q585.0 260.8 585.0 263.7L585.0 263.7Q585.0 266.6 585.8 268.9Q586.6 271.2 588.2 272.4Q589.8 273.7 592.2 273.7L592.2 273.7Q593.4 273.7 594.5 273.3Q595.5 272.9 596.3 272.2Q597.2 271.4 597.7 270.4Q598.3 269.3 598.5 268.0L598.5 268.0L606.7 269.5Q606.2 272.1 605.0 274.2Q603.8 276.2 601.9 277.7Q600.0 279.1 597.5 279.9Q595 280.6 592.1 280.6ZM622.9 247.2L629.0 247.2L629.0 254.0L622.9 254.0L622.9 270.4Q622.9 272.0 623.5 272.7Q624.2 273.5 625.8 273.5L625.8 273.5Q626.3 273.5 627.3 273.3Q628.2 273.2 628.6 273.1L628.6 273.1L629.9 279.7Q628.4 280.1 627.0 280.3Q625.5 280.5 624.2 280.5L624.2 280.5Q619.3 280.5 616.7 278.1Q614.1 275.7 614.1 271.2L614.1 271.2L614.1 254.0L609.6 254.0L609.6 247.2L614.1 247.2L614.1 239.5L622.9 239.5L622.9 247.2ZM648.8 280.6L648.8 280.6Q643.8 280.6 640.2 278.5Q636.6 276.4 634.7 272.6Q632.7 268.8 632.7 263.8L632.7 263.8Q632.7 258.7 634.7 254.9Q636.6 251.1 640.2 249.0Q643.8 246.8 648.8 246.8L648.8 246.8Q653.7 246.8 657.3 249.0Q660.9 251.1 662.8 254.9Q664.8 258.7 664.8 263.8L664.8 263.8Q664.8 268.8 662.8 272.6Q660.9 276.4 657.3 278.5Q653.7 280.6 648.8 280.6ZM648.8 273.7L648.8 273.7Q651.1 273.7 652.7 272.4Q654.3 271.1 655.1 268.9Q655.8 266.6 655.8 263.7L655.8 263.7Q655.8 260.8 655.1 258.6Q654.3 256.3 652.7 255.0Q651.1 253.8 648.8 253.8L648.8 253.8Q646.4 253.8 644.8 255.0Q643.3 256.3 642.5 258.6Q641.7 260.8 641.7 263.7L641.7 263.7Q641.7 266.6 642.5 268.9Q643.3 271.1 644.8 272.4Q646.4 273.7 648.8 273.7ZM679.7 280L670.9 280L670.9 247.2L679.4 247.2L679.4 253.0L679.8 253.0Q680.7 249.9 682.8 248.4Q684.9 246.8 687.7 246.8L687.7 246.8Q688.3 246.8 689.1 246.9Q689.9 247.0 690.5 247.1L690.5 247.1L690.5 255.0Q689.9 254.7 688.8 254.6Q687.7 254.5 686.7 254.5L686.7 254.5Q684.7 254.5 683.1 255.4Q681.5 256.2 680.6 257.8Q679.7 259.3 679.7 261.4L679.7 261.4L679.7 280ZM704.4 280L695.6 280L695.6 247.2L704.4 247.2L704.4 280ZM700 243.0L700 243.0Q698.0 243.0 696.6 241.7Q695.2 240.3 695.2 238.5L695.2 238.5Q695.2 236.6 696.6 235.3Q698.0 233.9 700 233.9L700 233.9Q702.0 233.9 703.4 235.2Q704.8 236.6 704.8 238.5L704.8 238.5Q704.8 240.3 703.4 241.7Q702.0 243.0 700 243.0ZM720.7 261.0L720.7 261.0L720.7 280L711.9 280L711.9 247.2L720.2 247.2L720.3 254.0Q721.5 250.9 723.7 249.1L723.7 249.1Q726.3 246.8 730.5 246.8L730.5 246.8Q733.9 246.8 736.4 248.3Q738.9 249.8 740.3 252.6Q741.7 255.3 741.7 259.2L741.7 259.2L741.7 280L732.9 280L732.9 260.7Q732.9 257.6 731.4 255.9Q729.8 254.2 727.0 254.2L727.0 254.2Q725.2 254.2 723.7 255.0Q722.3 255.8 721.5 257.3Q720.7 258.8 720.7 261.0ZM763.8 292.9L763.8 292.9Q759.7 292.9 756.6 291.9Q753.6 290.9 751.7 289.1Q749.8 287.2 749.0 284.9L749.0 284.9L756.6 282.8Q757.0 283.7 757.9 284.6Q758.7 285.4 760.2 286.0Q761.6 286.6 763.7 286.6L763.7 286.6Q767.1 286.6 769.0 285.0Q770.9 283.5 770.9 280.2L770.9 280.2L770.9 274.2L770.3 274.2Q769.7 275.5 768.6 276.7Q767.4 278.0 765.6 278.8Q763.8 279.5 761.2 279.5L761.2 279.5Q757.5 279.5 754.5 277.8Q751.4 276.1 749.6 272.5Q747.8 269.0 747.8 263.6L747.8 263.6Q747.8 258.0 749.7 254.3Q751.5 250.6 754.5 248.7Q757.6 246.8 761.2 246.8L761.2 246.8Q764.0 246.8 765.8 247.8Q767.7 248.7 768.9 250.1Q770.0 251.5 770.6 252.8L770.6 252.8L771.0 252.8L771.0 247.2L779.6 247.2L779.6 279.7Q779.6 284.2 777.6 287.1Q775.6 290.0 772.0 291.5Q768.4 292.9 763.8 292.9ZM763.9 272.9L763.9 272.9Q766.2 272.9 767.7 271.7Q769.3 270.6 770.1 268.5Q771.0 266.4 771.0 263.5L771.0 263.5Q771.0 260.6 770.1 258.4Q769.3 256.3 767.7 255.1Q766.2 253.9 763.9 253.9L763.9 253.9Q761.6 253.9 760.0 255.1Q758.5 256.4 757.7 258.5Q756.9 260.7 756.9 263.5L756.9 263.5Q756.9 266.4 757.7 268.5Q758.5 270.6 760.1 271.7Q761.6 272.9 763.9 272.9Z M820.6 280.6L820.6 280.6Q814.8 280.6 810.2 277.9Q805.6 275.3 803.0 270.3Q800.3 265.3 800.3 258.2L800.3 258.2Q800.3 251.1 803.0 246.1Q805.7 241.0 810.3 238.4Q814.9 235.8 820.6 235.8L820.6 235.8Q824.3 235.8 827.5 236.8Q830.8 237.8 833.2 239.8Q835.7 241.8 837.3 244.7Q838.9 247.6 839.4 251.3L839.4 251.3L830.3 251.3Q830.0 249.5 829.2 248.1Q828.4 246.7 827.1 245.7Q825.9 244.7 824.3 244.2Q822.7 243.7 820.8 243.7L820.8 243.7Q817.4 243.7 814.8 245.4Q812.3 247.1 810.8 250.3Q809.4 253.6 809.4 258.2L809.4 258.2Q809.4 262.9 810.9 266.1Q812.3 269.4 814.8 271.0Q817.4 272.6 820.8 272.6L820.8 272.6Q822.6 272.6 824.2 272.1Q825.8 271.6 827.1 270.6Q828.4 269.7 829.2 268.3Q830.0 266.8 830.4 265.1L830.4 265.1L839.4 265.1Q839.1 268.1 837.6 270.9Q836.2 273.7 833.8 275.9Q831.4 278.1 828.1 279.3Q824.7 280.6 820.6 280.6ZM860.4 280.6L860.4 280.6Q855.4 280.6 851.8 278.5Q848.2 276.4 846.3 272.6Q844.3 268.8 844.3 263.8L844.3 263.8Q844.3 258.7 846.3 254.9Q848.2 251.1 851.8 249.0Q855.4 246.8 860.4 246.8L860.4 246.8Q865.3 246.8 868.9 249.0Q872.5 251.1 874.4 254.9Q876.4 258.7 876.4 263.8L876.4 263.8Q876.4 268.8 874.4 272.6Q872.5 276.4 868.9 278.5Q865.3 280.6 860.4 280.6ZM860.4 273.7L860.4 273.7Q862.7 273.7 864.3 272.4Q865.9 271.1 866.7 268.9Q867.5 266.6 867.5 263.7L867.5 263.7Q867.5 260.8 866.7 258.6Q865.9 256.3 864.3 255.0Q862.7 253.8 860.4 253.8L860.4 253.8Q858.0 253.8 856.5 255.0Q854.9 256.3 854.1 258.6Q853.3 260.8 853.3 263.7L853.3 263.7Q853.3 266.6 854.1 268.9Q854.9 271.1 856.5 272.4Q858.0 273.7 860.4 273.7ZM891.3 280L882.5 280L882.5 247.2L890.7 247.2L891.0 253.6Q891.7 251.8 892.7 250.5L892.7 250.5Q894.2 248.6 896.2 247.7Q898.2 246.7 900.4 246.7L900.4 246.7Q903.9 246.7 906.1 249.0L906.1 249.0Q907.8 250.8 908.8 254.1L908.8 254.1Q909.5 252.1 910.6 250.7L910.6 250.7Q912.3 248.7 914.6 247.7Q916.8 246.7 919.3 246.7L919.3 246.7Q922.3 246.7 924.7 248.1Q927.1 249.4 928.4 251.9Q929.8 254.3 929.8 257.9L929.8 257.9L929.8 280L921.0 280L921.0 259.6Q921.0 256.8 919.5 255.4Q918.0 254.1 915.8 254.1L915.8 254.1Q914.1 254.1 912.9 254.8Q911.7 255.5 911.0 256.8Q910.4 258.1 910.4 259.8L910.4 259.8L910.4 280L901.9 280L901.9 259.3Q901.9 256.9 900.5 255.5Q899.0 254.1 896.8 254.1L896.8 254.1Q895.2 254.1 894.0 254.8Q892.7 255.5 892.0 256.9Q891.3 258.2 891.3 260.2L891.3 260.2L891.3 280ZM946.1 292.2L937.3 292.2L937.3 247.2L945.9 247.2L945.9 252.8L946.3 252.8Q946.9 251.5 948.1 250.1Q949.2 248.7 951.0 247.8Q952.9 246.8 955.7 246.8L955.7 246.8Q959.3 246.8 962.3 248.7Q965.3 250.6 967.1 254.3Q968.9 258.1 968.9 263.7L968.9 263.7Q968.9 269.1 967.2 272.9Q965.4 276.7 962.4 278.6Q959.4 280.6 955.6 280.6L955.6 280.6Q952.9 280.6 951.1 279.6Q949.3 278.7 948.1 277.4Q946.9 276.1 946.3 274.8L946.3 274.8L946.1 274.8L946.1 292.2ZM952.9 273.5L952.9 273.5Q955.2 273.5 956.8 272.2Q958.3 271.0 959.1 268.8Q960.0 266.5 960.0 263.7L960.0 263.7Q960.0 260.8 959.1 258.6Q958.3 256.4 956.8 255.1Q955.2 253.9 952.9 253.9L952.9 253.9Q950.7 253.9 949.1 255.1Q947.5 256.3 946.7 258.5Q945.9 260.7 945.9 263.7L945.9 263.7Q945.9 266.6 946.7 268.8Q947.5 271.0 949.1 272.3Q950.7 273.5 952.9 273.5ZM975.1 236.3L983.9 236.3L983.9 280L975.1 280L975.1 236.3ZM1006.2 280.6L1006.2 280.6Q1001.1 280.6 997.5 278.6Q993.9 276.5 991.9 272.8Q990.0 269.0 990.0 263.8L990.0 263.8Q990.0 258.7 991.9 254.9Q993.8 251.1 997.4 249.0Q1000.9 246.8 1005.7 246.8L1005.7 246.8Q1008.9 246.8 1011.7 247.9Q1014.5 248.9 1016.6 251.0Q1018.7 253.0 1019.9 256.1Q1021.1 259.2 1021.1 263.4L1021.1 263.4L1021.1 265.9L998.7 265.9Q998.8 268.4 999.6 270.2L999.6 270.2Q1000.6 272.1 1002.3 273.1Q1004.0 274.0 1006.3 274.0L1006.3 274.0Q1007.9 274.0 1009.1 273.6Q1010.4 273.1 1011.3 272.3Q1012.2 271.4 1012.6 270.2L1012.6 270.2L1020.6 271.7Q1019.8 274.3 1017.8 276.4Q1015.9 278.4 1012.9 279.5Q1010.0 280.6 1006.2 280.6ZM998.7 260.4L998.7 260.4L1012.6 260.4Q1012.5 258.8 1011.9 257.4L1011.9 257.4Q1011.1 255.5 1009.6 254.5Q1008.1 253.5 1005.8 253.5L1005.8 253.5Q1003.5 253.5 1001.9 254.5Q1000.3 255.6 999.5 257.4L999.5 257.4Q998.9 258.7 998.7 260.4ZM1037.2 247.2L1043.4 247.2L1043.4 254.0L1037.2 254.0L1037.2 270.4Q1037.2 272.0 1037.9 272.7Q1038.6 273.5 1040.2 273.5L1040.2 273.5Q1040.7 273.5 1041.6 273.3Q1042.5 273.2 1043.0 273.1L1043.0 273.1L1044.3 279.7Q1042.8 280.1 1041.4 280.3Q1039.9 280.5 1038.6 280.5L1038.6 280.5Q1033.7 280.5 1031.1 278.1Q1028.4 275.7 1028.4 271.2L1028.4 271.2L1028.4 254.0L1023.9 254.0L1023.9 247.2L1028.4 247.2L1028.4 239.5L1037.2 239.5L1037.2 247.2ZM1063.3 280.6L1063.3 280.6Q1058.3 280.6 1054.6 278.6Q1051.0 276.5 1049.1 272.8Q1047.1 269.0 1047.1 263.8L1047.1 263.8Q1047.1 258.7 1049.0 254.9Q1051.0 251.1 1054.5 249.0Q1058.1 246.8 1062.8 246.8L1062.8 246.8Q1066.1 246.8 1068.8 247.9Q1071.6 248.9 1073.7 251.0Q1075.8 253.0 1077.0 256.1Q1078.2 259.2 1078.2 263.4L1078.2 263.4L1078.2 265.9L1055.8 265.9Q1055.9 268.4 1056.8 270.2L1056.8 270.2Q1057.7 272.1 1059.4 273.1Q1061.1 274.0 1063.4 274.0L1063.4 274.0Q1065.0 274.0 1066.2 273.6Q1067.5 273.1 1068.4 272.3Q1069.3 271.4 1069.8 270.2L1069.8 270.2L1077.7 271.7Q1076.9 274.3 1075.0 276.4Q1073.0 278.4 1070.1 279.5Q1067.1 280.6 1063.3 280.6ZM1055.9 260.4L1055.9 260.4L1069.8 260.4Q1069.6 258.8 1069.1 257.4L1069.1 257.4Q1068.3 255.5 1066.7 254.5Q1065.2 253.5 1062.9 253.5L1062.9 253.5Q1060.6 253.5 1059.0 254.5Q1057.5 255.6 1056.6 257.4L1056.6 257.4Q1056.0 258.7 1055.9 260.4Z "/></g><defs><clipPath id="satori_bc-id-0-1"><rect x="0" y="441" width="1200" height="189"/></clipPath></defs><mask id="satori_om-id-0-1"><rect x="0" y="442" width="1200" height="188" fill="#fff"/><path width="1200" height="189" fill="none" stroke="#000" stroke-width="2" d="M0,441 A0,0 0 0 1 0,441 h1200 A0,0 0 0 1 1200,441"/></mask><path width="1200" height="189" clip-path="url(#satori_bc-id-0-1)" fill="none" stroke="#dbdbdb" stroke-width="2" d="M0,441 A0,0 0 0 1 0,441 h1200 A0,0 0 0 1 1200,441"/><mask id="satori_om-id-0-1-0"><rect x="40" y="482" width="493" height="108" fill="#fff"/></mask><clipPath id="satori_cp-id-0-1-0-0"><rect x="40" y="504" width="64" height="64"/></clipPath><mask id="satori_om-id-0-1-0-0"><rect x="40" y="504" width="64" height="64" fill="#fff"/></mask><image x="40" y="504" width="64" height="64" href="data:image/svg+xml;utf8,%3Csvg  xmlns=%22http://www.w3.org/2000/svg%22 width=%2264%22 height=%2264%22 viewBox=%220 0 128 128%22%3E%3Cpath fill=%22%23224d67%22 d=%22M22.5 14.8c2.9 1.3 99 44 99 44c2.7 1.2 2.9 3.1 2 12.4c-1 10.5-1.9 37.8-40.2 42.9c-24.6 3.2-55.9-4.3-70.9-27.2C-6 58.8 11 23.4 14.8 17.7c2.4-3.5 4.8-4.2 7.7-2.9%22%3E%3C/path%3E%3Cpath fill=%22%23f0f4c3%22 d=%22M121.5 58.8c-.3-.2-92-40.8-98.9-43.9C9.6 31.5-3.8 76 27.9 96.2c33.6 21.5 78.7-10.2 93.6-37.4%22%3E%3C/path%3E%3Cpath fill=%22%23f0f4c3%22 d=%22M117.7 57c-.3-.2-86.7-38.4-93.2-41.3c-12.2 15.5-23.9 59.1 5.7 78c31.4 20.2 73.6-11.2 87.5-36.7%22%3E%3C/path%3E%3Cpath fill=%22%23cb2a42%22 d=%22M56.2 37.6L19.5 48.2c-2.5.8-4.4 2.8-5 5.3c-1.9 8.5.8 23.3 8.9 29.8c3.5 2.7 8.6 1.8 10.8-2.1L58.5 41c1.3-1.7.5-4.2-2.3-3.4m14.3 2.9s14.6 30.1 16 33s6.3 4.7 9.9 2.8c10.7-5.6 15.5-12.4 19.2-20.2c-8.9-3.9-42.4-18.8-42.4-18.8c-2.4-1.1-4 .6-2.7 3.2m-8.6 1.9C60.3 45.1 39.5 81 37.6 84.1c-1.9 3.2-.7 7.5 2.7 9.2c12.3 6.5 30.9.4 39.6-7c2.2-1.9 4.5-5.1 3.2-8.2S68.9 44.6 67.8 42.3c-1.2-2.7-4.1-2.8-5.9.1%22%3E%3C/path%3E%3Cpath fill=%22%23f0f4c3%22 d=%22M52.2 42.2c-1.4.4-10.1 3-11.1 3.4c-1.4.5-2.2 1.7-1.9 2.5c.3.9 1.7 1.1 3.1.6c.8-.3 7.1-3.9 9.5-5.2c-3.1 2.4-10.2 9.4-11.1 10.3c-1.4 1.5-1.7 3.4-.8 4.3c1 .9 2.9.5 4.3-1c1.2-1.3 8.5-12.8 9.1-13.9s.4-1.4-1.1-1m10.1 16.4c0-2.2 1.4-10.3 1.8-12.3c.4-1.6 1.5-1.8 1.8.5s1.7 9.7 1.7 11.8s-1.2 3.3-2.7 3.3c-1.4 0-2.6-1.1-2.6-3.3M79.9 49c-1.2-1.8-3.3-4.9-4.1-6.1c-.7-1.2.1-2.1 1.8-.9s4 2.9 5.4 4c1.6 1.3 1.9 3 .8 4s-2.7.8-3.9-1%22%3E%3C/path%3E%3Cellipse cx=%2287.3%22 cy=%22103.12%22 fill=%22%23cb2a42%22 rx=%223.4%22 ry=%222.3%22 transform=%22rotate(-27.098 87.298 103.126)%22%3E%3C/ellipse%3E%3Cellipse cx=%2298.89%22 cy=%22103.82%22 fill=%22%23cb2a42%22 rx=%223.4%22 ry=%222.3%22 transform=%22rotate(-30.642 98.887 103.818)%22%3E%3C/ellipse%3E%3Cellipse cx=%22102.02%22 cy=%2293.8%22 fill=%22%23cb2a42%22 rx=%223.4%22 ry=%222.3%22 transform=%22rotate(-37.16 102.017 93.797)%22%3E%3C/ellipse%3E%3Cpath fill=%22%23cb2a42%22 d=%22M57.6 30.3c-8.3-3.7-24.4-10.7-29.6-13c-3.6 2.2-9.7 11.4-11.2 21.2c-.6 3.6 1.7 5.9 5.3 4.9c0 0 33.7-9.3 35.3-9.7c1.6-.5 2-2.6.2-3.4%22%3E%3C/path%3E%3C/svg%3E" preserveAspectRatio="none" clip-path="url(#satori_cp-id-0-1-0-0)" mask="url(#satori_om-id-0-1-0-0)"/><mask id="satori_om-id-0-1-0-0-0"><rect x="40" y="504" width="0" height="64" fill="#fff"/></mask><mask id="satori_om-id-0-1-0-0-1"><rect x="40" y="504" width="0" height="64" fill="#fff"/></mask><mask id="satori_om-id-0-1-0-0-2"><rect x="40" y="504" width="0" height="64" fill="#fff"/></mask><mask id="satori_om-id-0-1-0-0-3"><rect x="40" y="504" width="0" height="64" fill="#fff"/></mask><mask id="satori_om-id-0-1-0-0-4"><rect x="40" y="504" width="0" height="64" fill="#fff"/></mask><mask id="satori_om-id-0-1-0-0-5"><rect x="40" y="504" width="0" height="64" fill="#fff"/></mask><mask id="satori_om-id-0-1-0-0-6"><rect x="40" y="504" width="0" height="64" fill="#fff"/></mask><mask id="satori_om-id-0-1-0-0-7"><rect x="40" y="504" width="0" height="64" fill="#fff"/></mask><mask id="satori_om-id-0-1-0-0-8"><rect x="40" y="504" width="0" height="64" fill="#fff"/></mask><mask id="satori_om-id-0-1-0-1"><rect x="116" y="512" width="417" height="48" fill="#fff"/></mask><g  ><path fill="#545454" d="M126.5 553L119.2 553L119.2 518.1L127.1 518.1L138.2 535.8Q139.0 537.1 139.9 538.7Q140.8 540.3 141.7 542.2L141.7 542.2Q142.1 543.2 142.5 544.3L142.5 544.3Q142.5 543.4 142.4 542.5L142.4 542.5Q142.3 540.3 142.2 538.3Q142.1 536.2 142.1 534.8L142.1 534.8L142.1 518.1L149.4 518.1L149.4 553L141.4 553L131.4 537.0Q130.3 535.2 129.4 533.5Q128.4 531.8 127.4 529.7L127.4 529.7Q126.8 528.5 126.0 526.9L126.0 526.9Q126.1 528.3 126.2 529.7L126.2 529.7Q126.3 532.0 126.4 533.9Q126.5 535.8 126.5 536.9L126.5 536.9L126.5 553ZM162.9 553.5L162.9 553.5Q160.4 553.5 158.4 552.6Q156.5 551.8 155.3 550.0Q154.2 548.3 154.2 545.7L154.2 545.7Q154.2 543.5 155.0 542.0Q155.8 540.5 157.2 539.6Q158.6 538.8 160.4 538.3Q162.1 537.8 164.1 537.6L164.1 537.6Q166.3 537.4 167.7 537.2Q169.1 537.0 169.8 536.6Q170.4 536.1 170.4 535.3L170.4 535.3L170.4 535.2Q170.4 534.0 170.0 533.3Q169.5 532.5 168.6 532.1Q167.6 531.7 166.3 531.7L166.3 531.7Q165.0 531.7 164.0 532.1Q162.9 532.5 162.3 533.2Q161.7 533.9 161.4 534.7L161.4 534.7L154.9 533.6Q155.6 531.3 157.2 529.8Q158.8 528.2 161.1 527.3Q163.4 526.5 166.3 526.5L166.3 526.5Q168.5 526.5 170.4 527.0Q172.4 527.5 174.0 528.5Q175.6 529.6 176.5 531.3Q177.5 533.0 177.5 535.4L177.5 535.4L177.5 553L170.8 553L170.8 549.4L170.6 549.4Q169.9 550.6 168.9 551.5Q167.8 552.4 166.3 553.0Q164.8 553.5 162.9 553.5ZM164.9 548.6L164.9 548.6Q166.6 548.6 167.8 547.9Q169.1 547.3 169.8 546.1Q170.5 545.0 170.5 543.6L170.5 543.6L170.5 540.8Q170.2 541.0 169.5 541.2Q168.9 541.4 168.1 541.5Q167.4 541.7 166.6 541.8Q165.9 541.9 165.3 542.0L165.3 542.0Q164.0 542.2 163.0 542.6Q162.0 543.0 161.5 543.7Q160.9 544.4 160.9 545.5L160.9 545.5Q160.9 546.5 161.4 547.2Q162.0 547.9 162.9 548.2Q163.7 548.6 164.9 548.6ZM191.6 526.8L196.5 526.8L196.5 532.2L191.6 532.2L191.6 545.3Q191.6 546.6 192.1 547.2Q192.7 547.8 194.0 547.8L194.0 547.8Q194.4 547.8 195.1 547.7Q195.8 547.6 196.2 547.5L196.2 547.5L197.2 552.7Q196.0 553.1 194.9 553.2Q193.7 553.4 192.6 553.4L192.6 553.4Q188.7 553.4 186.6 551.5Q184.5 549.5 184.5 545.9L184.5 545.9L184.5 532.2L180.9 532.2L180.9 526.8L184.5 526.8L184.5 520.6L191.6 520.6L191.6 526.8ZM208.2 537.8L208.2 537.8L208.2 553L201.1 553L201.1 518.1L208.0 518.1L208.0 531.8Q209.0 529.6 210.6 528.3L210.6 528.3Q212.7 526.5 216.0 526.5L216.0 526.5Q218.8 526.5 220.8 527.7Q222.8 528.8 223.9 531.1Q225.1 533.3 225.1 536.3L225.1 536.3L225.1 553L218 553L218 537.6Q218 535.1 216.7 533.7Q215.5 532.4 213.3 532.4L213.3 532.4Q211.8 532.4 210.6 533.0Q209.5 533.6 208.8 534.9Q208.2 536.1 208.2 537.8ZM238.3 553.5L238.3 553.5Q235.9 553.5 233.9 552.6Q231.9 551.8 230.8 550.0Q229.6 548.3 229.6 545.7L229.6 545.7Q229.6 543.5 230.4 542.0Q231.2 540.5 232.6 539.6Q234.0 538.8 235.8 538.3Q237.6 537.8 239.5 537.6L239.5 537.6Q241.8 537.4 243.2 537.2Q244.6 537.0 245.2 536.6Q245.9 536.1 245.9 535.3L245.9 535.3L245.9 535.2Q245.9 534.0 245.4 533.3Q244.9 532.5 244.0 532.1Q243.1 531.7 241.8 531.7L241.8 531.7Q240.4 531.7 239.4 532.1Q238.4 532.5 237.8 533.2Q237.1 533.9 236.8 534.7L236.8 534.7L230.4 533.6Q231.1 531.3 232.6 529.8Q234.2 528.2 236.5 527.3Q238.9 526.5 241.8 526.5L241.8 526.5Q243.9 526.5 245.9 527.0Q247.9 527.5 249.5 528.5Q251.0 529.6 252.0 531.3Q252.9 533.0 252.9 535.4L252.9 535.4L252.9 553L246.2 553L246.2 549.4L246.0 549.4Q245.4 550.6 244.3 551.5Q243.3 552.4 241.8 553.0Q240.3 553.5 238.3 553.5ZM240.3 548.6L240.3 548.6Q242 548.6 243.3 547.9Q244.5 547.3 245.2 546.1Q245.9 545.0 245.9 543.6L245.9 543.6L245.9 540.8Q245.6 541.0 245.0 541.2Q244.3 541.4 243.6 541.5Q242.8 541.7 242.0 541.8Q241.3 541.9 240.7 542.0L240.7 542.0Q239.4 542.2 238.4 542.6Q237.5 543.0 236.9 543.7Q236.4 544.4 236.4 545.5L236.4 545.5Q236.4 546.5 236.9 547.2Q237.4 547.9 238.3 548.2Q239.2 548.6 240.3 548.6ZM265.9 537.8L265.9 537.8L265.9 553L258.9 553L258.9 526.8L265.5 526.8L265.6 532.2Q266.6 529.7 268.4 528.3L268.4 528.3Q270.5 526.5 273.8 526.5L273.8 526.5Q276.5 526.5 278.5 527.7Q280.6 528.8 281.7 531.1Q282.8 533.3 282.8 536.3L282.8 536.3L282.8 553L275.8 553L275.8 537.6Q275.8 535.1 274.5 533.7Q273.2 532.4 271.0 532.4L271.0 532.4Q269.5 532.4 268.4 533.0Q267.2 533.6 266.6 534.9Q265.9 536.1 265.9 537.8Z M322.5 553L300.3 553L300.3 518.1L307.5 518.1L307.5 547.1L322.5 547.1L322.5 553ZM334.6 553.5L334.6 553.5Q332.1 553.5 330.1 552.6Q328.2 551.8 327.0 550.0Q325.9 548.3 325.9 545.7L325.9 545.7Q325.9 543.5 326.7 542.0Q327.5 540.5 328.9 539.6Q330.3 538.8 332.1 538.3Q333.8 537.8 335.8 537.6L335.8 537.6Q338.0 537.4 339.4 537.2Q340.8 537.0 341.5 536.6Q342.1 536.1 342.1 535.3L342.1 535.3L342.1 535.2Q342.1 534.0 341.7 533.3Q341.2 532.5 340.3 532.1Q339.3 531.7 338.0 531.7L338.0 531.7Q336.7 531.7 335.7 532.1Q334.6 532.5 334.0 533.2Q333.4 533.9 333.1 534.7L333.1 534.7L326.6 533.6Q327.3 531.3 328.9 529.8Q330.5 528.2 332.8 527.3Q335.1 526.5 338.0 526.5L338.0 526.5Q340.2 526.5 342.1 527.0Q344.1 527.5 345.7 528.5Q347.3 529.6 348.2 531.3Q349.2 533.0 349.2 535.4L349.2 535.4L349.2 553L342.5 553L342.5 549.4L342.3 549.4Q341.6 550.6 340.6 551.5Q339.5 552.4 338.0 553.0Q336.5 553.5 334.6 553.5ZM336.6 548.6L336.6 548.6Q338.3 548.6 339.5 547.9Q340.8 547.3 341.5 546.1Q342.2 545.0 342.2 543.6L342.2 543.6L342.2 540.8Q341.9 541.0 341.2 541.2Q340.6 541.4 339.8 541.5Q339.1 541.7 338.3 541.8Q337.6 541.9 337.0 542.0L337.0 542.0Q335.7 542.2 334.7 542.6Q333.7 543.0 333.2 543.7Q332.6 544.4 332.6 545.5L332.6 545.5Q332.6 546.5 333.1 547.2Q333.7 547.9 334.6 548.2Q335.4 548.6 336.6 548.6ZM362.2 537.8L362.2 537.8L362.2 553L355.2 553L355.2 526.8L361.8 526.8L361.9 532.2Q362.9 529.7 364.6 528.3L364.6 528.3Q366.7 526.5 370.0 526.5L370.0 526.5Q372.8 526.5 374.8 527.7Q376.8 528.8 377.9 531.1Q379.0 533.3 379.0 536.3L379.0 536.3L379.0 553L372.0 553L372.0 537.6Q372.0 535.1 370.8 533.7Q369.5 532.4 367.3 532.4L367.3 532.4Q365.8 532.4 364.6 533.0Q363.5 533.6 362.8 534.9Q362.2 536.1 362.2 537.8ZM396.9 553.5L396.9 553.5Q392.9 553.5 390.0 551.9Q387.1 550.2 385.5 547.2Q383.9 544.2 383.9 540.0L383.9 540.0Q383.9 536.0 385.5 532.9Q387.0 529.9 389.9 528.2Q392.7 526.5 396.5 526.5L396.5 526.5Q399.1 526.5 401.3 527.3Q403.6 528.1 405.2 529.8Q406.9 531.4 407.9 533.9Q408.8 536.4 408.8 539.8L408.8 539.8L408.8 541.7L390.9 541.7Q391.0 543.7 391.7 545.1L391.7 545.1Q392.4 546.7 393.8 547.4Q395.2 548.2 397.0 548.2L397.0 548.2Q398.2 548.2 399.2 547.9Q400.3 547.5 401.0 546.8Q401.7 546.1 402.1 545.1L402.1 545.1L408.4 546.3Q407.8 548.5 406.2 550.1Q404.7 551.7 402.3 552.6Q399.9 553.5 396.9 553.5ZM390.9 537.3L390.9 537.3L402.1 537.3Q401.9 536.0 401.5 534.9L401.5 534.9Q400.9 533.4 399.6 532.6Q398.4 531.8 396.6 531.8L396.6 531.8Q394.8 531.8 393.5 532.6Q392.2 533.5 391.6 534.9L391.6 534.9Q391.1 536.0 390.9 537.3ZM418.2 562.3L413.4 562.3L415.5 547.7L422.5 547.7L418.2 562.3Z M446.9 553L439.7 553L439.7 518.1L453.3 518.1Q457.3 518.1 460.1 519.6Q462.9 521.1 464.4 523.8Q465.8 526.4 465.8 529.9L465.8 529.9Q465.8 533.3 464.3 536.0Q462.9 538.6 460.0 540.1Q457.2 541.6 453.2 541.6L453.2 541.6L446.9 541.6L446.9 553ZM446.9 524.0L446.9 535.8L452.0 535.8Q454.2 535.8 455.6 535.1Q457.1 534.3 457.8 533.0Q458.4 531.6 458.4 529.9Q458.4 528.1 457.8 526.8Q457.1 525.5 455.6 524.7Q454.2 524.0 452 524.0L452 524.0L446.9 524.0ZM477.7 537.8L477.7 537.8L477.7 553L470.7 553L470.7 518.1L477.5 518.1L477.5 531.8Q478.5 529.6 480.1 528.3L480.1 528.3Q482.2 526.5 485.5 526.5L485.5 526.5Q488.3 526.5 490.3 527.7Q492.3 528.8 493.4 531.1Q494.6 533.3 494.6 536.3L494.6 536.3L494.6 553L487.5 553L487.5 537.6Q487.5 535.1 486.3 533.7Q485 532.4 482.8 532.4L482.8 532.4Q481.3 532.4 480.1 533.0Q479.0 533.6 478.3 534.9Q477.7 536.1 477.7 537.8ZM513.0 553L513.0 553L500.7 553L500.7 518.1L513.1 518.1Q518.4 518.1 522.1 520.2Q525.9 522.3 528.0 526.2Q530 530.1 530 535.5L530 535.5Q530 541.0 528.0 544.9Q525.9 548.8 522.1 550.9Q518.3 553 513.0 553ZM507.9 524.2L507.9 546.8L512.6 546.8Q516.0 546.8 518.3 545.6Q520.6 544.4 521.7 541.9Q522.9 539.4 522.9 535.5L522.9 535.5Q522.9 531.6 521.7 529.1Q520.6 526.6 518.3 525.4Q516.0 524.2 512.7 524.2L512.7 524.2L507.9 524.2Z "/></g><mask id="satori_om-id-0-1-1"><rect x="937" y="524" width="223" height="36" fill="#fff"/></mask><g  ><path fill="#8e8e8e" d="M946.9 553.4L946.9 553.4Q945.4 553.4 944.4 552.8Q943.5 552.3 942.9 551.6Q942.4 550.9 942.2 550.5L942.2 550.5L941.9 550.5L941.9 553L939.3 553L939.3 531.2L942.0 531.2L942.0 539.2L942.2 539.2Q942.4 538.8 942.9 538.1Q943.4 537.5 944.4 536.9Q945.3 536.4 946.9 536.4L946.9 536.4Q949.0 536.4 950.5 537.4Q952.1 538.5 953.0 540.4Q953.8 542.3 953.8 544.9L953.8 544.9Q953.8 547.5 953.0 549.4Q952.1 551.3 950.5 552.3Q949.0 553.4 946.9 553.4ZM946.5 551.0L946.5 551.0Q948.1 551.0 949.1 550.2Q950.1 549.3 950.6 547.9Q951.2 546.5 951.2 544.8L951.2 544.8Q951.2 543.1 950.7 541.8Q950.1 540.4 949.1 539.6Q948.1 538.8 946.5 538.8L946.5 538.8Q945.0 538.8 944.0 539.5Q943.0 540.3 942.4 541.7Q941.9 543.0 941.9 544.8L941.9 544.8Q941.9 546.6 942.4 548.0Q943.0 549.4 944.0 550.2Q945.0 551.0 946.5 551.0ZM956.8 558.9L956.8 558.9L957.5 556.6L957.8 556.7Q958.6 556.9 959.3 556.8Q959.9 556.7 960.4 556.2Q961.0 555.6 961.4 554.5L961.4 554.5L961.8 553.1L955.6 536.6L958.5 536.6L961.9 546.3Q962.5 547.9 962.9 549.4L962.9 549.4Q963.0 550.0 963.2 550.6L963.2 550.6Q963.4 550.0 963.5 549.3L963.5 549.3Q963.9 547.8 964.5 546.3L964.5 546.3L968.0 536.6L970.9 536.6L963.7 555.4Q963.2 556.8 962.5 557.6Q961.8 558.4 960.8 558.8Q959.9 559.2 958.8 559.2L958.8 559.2Q958.1 559.2 957.6 559.1Q957.0 559.0 956.8 558.9Z M985.5 553L982.7 553L982.7 531.2L986.0 531.2L994.9 545.1Q995.2 545.7 995.7 546.5Q996.2 547.4 996.8 548.4L996.8 548.4Q997.1 549.0 997.4 549.7L997.4 549.7Q997.4 549.0 997.4 548.3L997.4 548.3Q997.3 547.2 997.3 546.2Q997.3 545.2 997.3 544.6L997.3 544.6L997.3 531.2L1000.0 531.2L1000.0 553L996.7 553L988.8 540.6Q988.3 539.7 987.7 538.8Q987.2 537.9 986.5 536.6L986.5 536.6Q986.0 535.7 985.3 534.5L985.3 534.5Q985.3 535.6 985.4 536.5L985.4 536.5Q985.4 537.9 985.5 538.9Q985.5 540.0 985.5 540.5L985.5 540.5L985.5 553ZM1009.6 553.4L1009.6 553.4Q1008.0 553.4 1006.8 552.8Q1005.5 552.2 1004.7 551.1Q1004.0 550.0 1004.0 548.3L1004.0 548.3Q1004.0 546.9 1004.6 546.1Q1005.1 545.2 1006.0 544.7Q1007.0 544.2 1008.1 543.9Q1009.2 543.7 1010.4 543.5L1010.4 543.5Q1011.8 543.3 1012.8 543.2Q1013.7 543.1 1014.1 542.9Q1014.6 542.6 1014.6 542.0L1014.6 542.0L1014.6 541.9Q1014.6 540.9 1014.2 540.2Q1013.8 539.5 1013.1 539.1Q1012.3 538.7 1011.2 538.7L1011.2 538.7Q1010.0 538.7 1009.1 539.1Q1008.3 539.5 1007.8 540.0Q1007.3 540.6 1007.0 541.1L1007.0 541.1L1004.5 540.3Q1005.1 538.8 1006.2 538.0Q1007.2 537.1 1008.5 536.8Q1009.8 536.4 1011.1 536.4L1011.1 536.4Q1011.9 536.4 1012.9 536.6Q1014.0 536.8 1015.0 537.4Q1015.9 538.0 1016.6 539.1Q1017.2 540.3 1017.2 542.2L1017.2 542.2L1017.2 553L1014.6 553L1014.6 550.8L1014.4 550.8Q1014.2 551.3 1013.6 552.0Q1012.9 552.6 1012.0 553.0Q1011.0 553.4 1009.6 553.4ZM1010.0 551.1L1010.0 551.1Q1011.5 551.1 1012.5 550.5Q1013.5 549.9 1014.1 549.0Q1014.6 548.1 1014.6 547.1L1014.6 547.1L1014.6 544.8Q1014.4 545.0 1013.9 545.2Q1013.3 545.3 1012.6 545.4Q1011.9 545.5 1011.3 545.6Q1010.6 545.7 1010.3 545.7L1010.3 545.7Q1009.3 545.9 1008.5 546.2Q1007.6 546.4 1007.2 547.0Q1006.7 547.5 1006.7 548.5L1006.7 548.5Q1006.7 549.3 1007.1 549.9Q1007.5 550.5 1008.3 550.8Q1009.1 551.1 1010.0 551.1ZM1024.9 536.6L1028.3 536.6L1028.3 538.9L1024.9 538.9L1024.9 548.8Q1024.9 549.9 1025.4 550.4Q1025.8 550.9 1026.9 550.9L1026.9 550.9Q1027.1 550.9 1027.5 550.8Q1027.9 550.7 1028.2 550.7L1028.2 550.7L1028.7 552.9Q1028.3 553.1 1027.8 553.1Q1027.3 553.2 1026.8 553.2L1026.8 553.2Q1024.7 553.2 1023.5 552.1Q1022.3 551.0 1022.3 549.0L1022.3 549.0L1022.3 538.9L1019.8 538.9L1019.8 536.6L1022.3 536.6L1022.3 532.7L1024.9 532.7L1024.9 536.6ZM1034.3 543.2L1034.3 543.2L1034.3 553L1031.7 553L1031.7 531.2L1034.3 531.2L1034.3 539.5Q1035.0 538.1 1036.0 537.4L1036.0 537.4Q1037.4 536.4 1039.2 536.4L1039.2 536.4Q1040.9 536.4 1042.1 537.1Q1043.4 537.8 1044.1 539.1Q1044.8 540.5 1044.8 542.6L1044.8 542.6L1044.8 553L1042.1 553L1042.1 542.8Q1042.1 540.9 1041.1 539.9Q1040.1 538.8 1038.4 538.8L1038.4 538.8Q1037.3 538.8 1036.3 539.3Q1035.4 539.8 1034.8 540.8Q1034.3 541.8 1034.3 543.2ZM1054.0 553.4L1054.0 553.4Q1052.4 553.4 1051.2 552.8Q1049.9 552.2 1049.1 551.1Q1048.4 550.0 1048.4 548.3L1048.4 548.3Q1048.4 546.9 1049.0 546.1Q1049.5 545.2 1050.4 544.7Q1051.4 544.2 1052.5 543.9Q1053.6 543.7 1054.8 543.5L1054.8 543.5Q1056.2 543.3 1057.2 543.2Q1058.1 543.1 1058.5 542.9Q1059.0 542.6 1059.0 542.0L1059.0 542.0L1059.0 541.9Q1059.0 540.9 1058.6 540.2Q1058.2 539.5 1057.5 539.1Q1056.7 538.7 1055.5 538.7L1055.5 538.7Q1054.4 538.7 1053.5 539.1Q1052.7 539.5 1052.2 540.0Q1051.7 540.6 1051.4 541.1L1051.4 541.1L1048.9 540.3Q1049.5 538.8 1050.6 538.0Q1051.6 537.1 1052.9 536.8Q1054.2 536.4 1055.5 536.4L1055.5 536.4Q1056.3 536.4 1057.3 536.6Q1058.4 536.8 1059.4 537.4Q1060.3 538.0 1061.0 539.1Q1061.6 540.3 1061.6 542.2L1061.6 542.2L1061.6 553L1059.0 553L1059.0 550.8L1058.8 550.8Q1058.6 551.3 1058.0 552.0Q1057.3 552.6 1056.4 553.0Q1055.4 553.4 1054.0 553.4ZM1054.4 551.1L1054.4 551.1Q1055.9 551.1 1056.9 550.5Q1057.9 549.9 1058.5 549.0Q1059.0 548.1 1059.0 547.1L1059.0 547.1L1059.0 544.8Q1058.8 545.0 1058.3 545.2Q1057.7 545.3 1057.0 545.4Q1056.3 545.5 1055.7 545.6Q1055.0 545.7 1054.7 545.7L1054.7 545.7Q1053.7 545.9 1052.9 546.2Q1052.0 546.4 1051.6 547.0Q1051.1 547.5 1051.1 548.5L1051.1 548.5Q1051.1 549.3 1051.5 549.9Q1051.9 550.5 1052.7 550.8Q1053.5 551.1 1054.4 551.1ZM1068.9 543.2L1068.9 543.2L1068.9 553L1066.2 553L1066.2 536.6L1068.8 536.6L1068.8 539.7Q1069.5 538.1 1070.6 537.4L1070.6 537.4Q1071.9 536.4 1073.8 536.4L1073.8 536.4Q1075.5 536.4 1076.7 537.1Q1077.9 537.8 1078.6 539.1Q1079.3 540.5 1079.3 542.6L1079.3 542.6L1079.3 553L1076.7 553L1076.7 542.8Q1076.7 540.9 1075.7 539.9Q1074.7 538.8 1073.0 538.8L1073.0 538.8Q1071.8 538.8 1070.9 539.3Q1070.0 539.8 1069.4 540.8Q1068.9 541.8 1068.9 543.2Z M1105.6 553L1092.7 553L1092.7 531.2L1095.5 531.2L1095.5 550.5L1105.6 550.5L1105.6 553ZM1114.0 553.4L1114.0 553.4Q1112.4 553.4 1111.1 552.8Q1109.9 552.2 1109.1 551.1Q1108.4 550.0 1108.4 548.3L1108.4 548.3Q1108.4 546.9 1108.9 546.1Q1109.5 545.2 1110.4 544.7Q1111.3 544.2 1112.5 543.9Q1113.6 543.7 1114.7 543.5L1114.7 543.5Q1116.2 543.3 1117.1 543.2Q1118.1 543.1 1118.5 542.9Q1118.9 542.6 1118.9 542.0L1118.9 542.0L1118.9 541.9Q1118.9 540.9 1118.6 540.2Q1118.2 539.5 1117.4 539.1Q1116.7 538.7 1115.5 538.7L1115.5 538.7Q1114.3 538.7 1113.5 539.1Q1112.7 539.5 1112.2 540.0Q1111.6 540.6 1111.4 541.1L1111.4 541.1L1108.8 540.3Q1109.5 538.8 1110.5 538.0Q1111.6 537.1 1112.9 536.8Q1114.2 536.4 1115.4 536.4L1115.4 536.4Q1116.3 536.4 1117.3 536.6Q1118.4 536.8 1119.3 537.4Q1120.3 538.0 1120.9 539.1Q1121.6 540.3 1121.6 542.2L1121.6 542.2L1121.6 553L1119.0 553L1119.0 550.8L1118.8 550.8Q1118.5 551.3 1117.9 552.0Q1117.3 552.6 1116.3 553.0Q1115.3 553.4 1114.0 553.4ZM1114.4 551.1L1114.4 551.1Q1115.9 551.1 1116.9 550.5Q1117.9 549.9 1118.4 549.0Q1118.9 548.1 1118.9 547.1L1118.9 547.1L1118.9 544.8Q1118.8 545.0 1118.2 545.2Q1117.7 545.3 1117.0 545.4Q1116.3 545.5 1115.7 545.6Q1115.0 545.7 1114.6 545.7L1114.6 545.7Q1113.7 545.9 1112.8 546.2Q1112.0 546.4 1111.5 547.0Q1111.0 547.5 1111.0 548.5L1111.0 548.5Q1111.0 549.3 1111.5 549.9Q1111.9 550.5 1112.7 550.8Q1113.4 551.1 1114.4 551.1ZM1128.9 543.2L1128.9 543.2L1128.9 553L1126.2 553L1126.2 536.6L1128.7 536.6L1128.8 539.7Q1129.5 538.1 1130.5 537.4L1130.5 537.4Q1131.9 536.4 1133.8 536.4L1133.8 536.4Q1135.4 536.4 1136.7 537.1Q1137.9 537.8 1138.6 539.1Q1139.3 540.5 1139.3 542.6L1139.3 542.6L1139.3 553L1136.7 553L1136.7 542.8Q1136.7 540.9 1135.7 539.9Q1134.7 538.8 1133.0 538.8L1133.0 538.8Q1131.8 538.8 1130.9 539.3Q1129.9 539.8 1129.4 540.8Q1128.9 541.8 1128.9 543.2ZM1150.8 553.4L1150.8 553.4Q1148.5 553.4 1146.7 552.3Q1145.0 551.2 1144.1 549.4Q1143.1 547.5 1143.1 544.9Q1143.1 542.4 1144.1 540.5Q1145.0 538.6 1146.6 537.5Q1148.3 536.4 1150.5 536.4L1150.5 536.4Q1151.8 536.4 1153.1 536.9Q1154.4 537.3 1155.4 538.2Q1156.4 539.2 1157.0 540.8Q1157.6 542.3 1157.6 544.6L1157.6 544.6L1157.6 545.7L1145.8 545.7Q1145.9 547.3 1146.4 548.4L1146.4 548.4Q1147.1 549.7 1148.2 550.4Q1149.3 551.0 1150.8 551.0L1150.8 551.0Q1151.8 551.0 1152.6 550.7Q1153.4 550.5 1154.0 549.9Q1154.5 549.3 1154.8 548.5L1154.8 548.5L1157.4 549.2Q1157.0 550.4 1156.1 551.4Q1155.2 552.3 1153.8 552.8Q1152.5 553.4 1150.8 553.4ZM1145.8 543.5L1145.8 543.5L1155.0 543.5Q1154.9 542.4 1154.5 541.4L1154.5 541.4Q1154.0 540.2 1153.0 539.5Q1152.0 538.8 1150.5 538.8Q1149.0 538.8 1148.0 539.5Q1146.9 540.2 1146.4 541.4L1146.4 541.4Q1145.9 542.4 1145.8 543.5Z "/></g></svg>